<svg xmlns:xlink="http://www.w3.org/1999/xlink" xmlns="http://www.w3.org/2000/svg" x="0" y="0" width="112.5" height="87.53569511122869" filtersec="colorsb1111606972" class="image-svg-svg primary" style="overflow: visible;"><svg xmlns="http://www.w3.org/2000/svg" viewBox="-0.000632158073130995 -0.0012869613710790873 128.5209503173828 100.00128936767578"><path d="M126.87 80.85l-17.82-31.64-15.72-27.9-1.69-3a12.87 12.87 0 0 0-22.4 0l-17.41 30.9-16.6 29.47L34 80.85A12.85 12.85 0 0 0 45.21 100h70.46a12.85 12.85 0 0 0 11.2-19.15z" fill="#1E2462"></path><path d="M94.45 6.36A12.54 12.54 0 0 0 83.36 0H12.89A12.52 12.52 0 0 0 1.81 6.36a12.51 12.51 0 0 0-.11 12.78l17.82 31.65 15.71 27.89 1.71 3a12.84 12.84 0 0 0 22.38 0l17.41-30.89 16.6-29.48 1.23-2.17a12.53 12.53 0 0 0-.11-12.78z" fill="#0A74E2" opacity=".8"></path></svg></svg>